<?xml version="1.0" standalone="no"?>
<!DOCTYPE svg PUBLIC "-//W3C//DTD SVG 20010904//EN"
 "http://www.w3.org/TR/2001/REC-SVG-20010904/DTD/svg10.dtd">
<svg version="1.0" xmlns="http://www.w3.org/2000/svg"
 width="480.000000pt" height="480.000000pt" viewBox="0 0 480.000000 480.000000"
 preserveAspectRatio="xMidYMid meet">
<metadata>
Created by potrace 1.14, written by Peter Selinger 2001-2017
</metadata>
<g transform="translate(0.000000,480.000000) scale(0.100000,-0.100000)"
fill="#000000" stroke="none">
<path d="M2109 4786 c-2 -2 -24 -7 -49 -10 -25 -3 -57 -8 -72 -11 -16 -3 -38
-7 -50 -9 -113 -20 -305 -77 -443 -132 -151 -60 -482 -244 -493 -275 -2 -5 -8
-9 -13 -9 -5 0 -17 -6 -26 -14 -119 -96 -157 -128 -212 -180 -35 -34 -73 -72
-85 -84 -12 -13 -39 -44 -61 -68 -61 -67 -77 -86 -182 -230 -31 -41 -143 -233
-143 -243 0 -6 -4 -11 -9 -11 -7 0 -14 -15 -22 -50 0 -3 -4 -9 -9 -15 -13 -15
-89 -195 -83 -195 3 0 1 -6 -5 -12 -25 -32 -102 -326 -129 -493 -10 -66 -10
-603 0 -680 4 -33 12 -76 17 -95 5 -19 11 -48 14 -65 15 -86 17 -92 70 -255
57 -174 159 -393 236 -506 17 -23 30 -45 30 -48 0 -5 96 -140 115 -162 6 -7
26 -31 45 -55 78 -97 209 -228 319 -321 79 -66 347 -248 365 -248 3 0 27 -13
53 -28 26 -16 50 -29 53 -30 3 0 28 -11 55 -24 28 -12 52 -23 55 -23 3 0 14
-6 25 -12 62 -34 389 -129 510 -148 22 -3 69 -11 105 -16 84 -14 457 -20 535
-8 33 4 83 11 110 14 72 9 97 13 172 31 38 9 75 17 83 19 65 15 234 72 324
109 115 48 331 159 346 177 3 3 16 12 29 19 14 7 30 17 35 22 6 5 43 31 81 59
98 69 234 186 299 257 17 19 50 53 74 77 23 24 42 49 42 55 0 5 4 10 8 10 11
0 128 156 181 240 22 36 44 70 49 75 18 23 144 285 167 350 14 39 30 79 35 90
14 34 56 180 66 228 2 10 5 26 8 35 3 9 8 33 11 52 5 33 14 85 21 122 2 15 8
71 20 188 2 19 7 199 10 400 l7 365 -44 -3 -45 -4 -23 79 c-12 43 -26 87 -31
98 -4 11 -13 36 -20 55 -39 114 -163 356 -243 477 -87 131 -149 213 -159 213
-4 0 -8 5 -8 10 0 6 -12 23 -27 39 -16 15 -66 67 -113 115 -176 181 -401 342
-645 461 -125 61 -323 138 -384 150 -9 2 -16 4 -16 5 0 2 -21 7 -60 15 -16 3
-55 12 -86 20 -130 34 -244 43 -515 44 -149 0 -273 -1 -275 -3z"/>
</g>
</svg>
