<?xml version="1.0" standalone="no"?>
<!DOCTYPE svg PUBLIC "-//W3C//DTD SVG 20010904//EN"
 "http://www.w3.org/TR/2001/REC-SVG-20010904/DTD/svg10.dtd">
<svg version="1.0" xmlns="http://www.w3.org/2000/svg"
 width="480.000000pt" height="480.000000pt" viewBox="0 0 480.000000 480.000000"
 preserveAspectRatio="xMidYMid meet">
<metadata>
Created by potrace 1.14, written by Peter Selinger 2001-2017
</metadata>
<g transform="translate(0.000000,480.000000) scale(0.100000,-0.100000)"
fill="#000000" stroke="none">
<path d="M2218 4785 c-2 -2 -37 -6 -78 -10 -41 -4 -84 -9 -95 -11 -11 -3 -38
-7 -60 -10 -22 -3 -67 -12 -100 -21 -33 -8 -71 -17 -85 -19 -104 -18 -378
-125 -537 -210 -136 -73 -331 -203 -385 -257 -9 -9 -19 -17 -22 -17 -3 0 -16
-10 -29 -22 -13 -13 -48 -46 -78 -74 -64 -60 -150 -152 -199 -213 -19 -24 -40
-48 -45 -55 -6 -6 -26 -33 -45 -61 -19 -27 -38 -52 -41 -55 -14 -11 -108 -172
-156 -265 -57 -111 -119 -256 -139 -325 -7 -25 -22 -76 -34 -115 -11 -38 -22
-80 -25 -93 -2 -12 -7 -32 -10 -43 -4 -12 -8 -31 -10 -42 -1 -12 -5 -38 -9
-57 -26 -148 -31 -214 -30 -420 0 -200 5 -266 29 -395 21 -114 39 -190 66
-277 17 -57 32 -105 32 -108 1 -12 80 -196 89 -208 6 -6 8 -12 4 -12 -12 0
160 -302 176 -308 4 -2 8 -10 8 -18 0 -8 4 -14 8 -14 5 0 18 -17 30 -38 12
-20 31 -49 44 -64 13 -14 39 -46 58 -69 67 -83 177 -196 265 -274 17 -14 42
-37 58 -51 15 -13 31 -24 36 -24 5 0 11 -4 13 -8 5 -15 141 -109 244 -170 84
-50 266 -145 284 -147 3 -1 23 -9 45 -19 81 -36 261 -91 358 -111 10 -2 26 -6
35 -9 9 -3 33 -8 52 -11 19 -3 42 -8 50 -10 17 -5 66 -11 180 -24 77 -9 455
-7 500 2 14 3 61 11 105 17 99 15 90 13 210 44 106 27 230 65 280 87 17 7 32
13 35 14 3 0 15 6 26 13 12 6 24 8 28 5 3 -3 6 0 6 7 0 7 3 10 6 7 7 -7 227
102 232 116 2 4 8 7 13 7 20 0 241 152 322 221 129 110 231 212 317 318 19 24
40 48 45 55 6 6 26 34 45 61 19 28 38 52 41 55 17 13 132 214 184 320 39 78
105 245 105 263 0 7 4 17 10 23 5 5 11 21 14 34 2 14 5 25 6 25 2 0 4 7 30
115 28 116 40 185 59 335 8 66 6 446 -3 510 -5 33 -15 99 -21 130 -9 50 -40
193 -47 215 -52 166 -100 296 -142 385 -61 132 -137 266 -176 312 -5 7 -10 16
-10 21 0 5 -9 17 -20 27 -11 10 -20 22 -20 27 0 5 -6 15 -12 22 -7 7 -24 28
-38 46 -79 104 -227 260 -320 339 -14 11 -36 31 -50 42 -273 233 -723 445
-1070 504 -19 3 -42 8 -50 10 -17 5 -73 12 -180 24 -69 8 -405 12 -412 6z"/>
</g>
</svg>
